<svg xmlns:xlink="http://www.w3.org/1999/xlink" xmlns="http://www.w3.org/2000/svg" width="32" height="32" fill="none" viewBox="8 1 16 29.63">
  <path fill-rule="evenodd" clip-rule="evenodd" d="M10.0409 1C10.6167 1 11.1067 1.12633 11.5133 1.37124H11.5133C11.92 1.62373 12.122 1.94188 12.122 2.33594V29.2567C12.122 29.5978 11.9098 29.9111 11.4931 30.1963C11.0737 30.4843 10.5916 30.6283 10.0409 30.6283C9.465 30.6283 8.98253 30.4843 8.59102 30.1963C8.19703 29.9084 8 29.5979 8 29.2567V2.33342C8 1.94188 8.19205 1.61873 8.57094 1.37124C8.94982 1.12636 9.4397 1 10.0409 1ZM14.6022 16.5557C14.5566 16.0781 14.6628 15.7295 14.9102 15.4996V15.4995L20.4287 12.0648C20.7974 11.8147 21.2799 11.6935 21.881 11.6935C22.4844 11.6935 22.9872 11.8147 23.3916 12.0647C23.7956 12.3098 24 12.628 24 13.022V29.2568C24 29.5979 23.7906 29.9084 23.3709 30.1964C22.9548 30.4844 22.457 30.6283 21.8811 30.6283C21.3052 30.6283 20.8255 30.4844 20.4518 30.1964C20.0677 29.9084 19.8786 29.5979 19.8786 29.2567V17.1816L17.696 18.5329C17.4487 18.7604 17.075 18.8209 16.5822 18.7098C16.0823 18.5961 15.6452 18.3284 15.2539 17.9015C14.8649 17.4773 14.6451 17.0278 14.6022 16.5557Z" fill="white"/>
</svg>