<svg width="1536" height="864" viewBox="0 0 1536 864" fill="none" xmlns="http://www.w3.org/2000/svg">
<g clip-path="url(#clip0_11_53)" filter="url(#filter0_f_11_53)">
<path fill-rule="evenodd" clip-rule="evenodd" d="M782.281 123.841C826.068 120.786 866.117 81.7058 907.604 94.6016C947.968 107.149 969.667 149.12 981.65 185.813C992.642 219.474 973.255 253.774 971.016 288.784C968.929 321.423 982.556 354.847 968.899 385.17C954.514 417.108 927.127 444.363 893.441 461.022C860.003 477.559 820.197 481.674 782.281 477.463C746.635 473.504 718.896 450.867 685.99 437.982C648.424 423.273 599.989 424.835 574.494 396.103C548.82 367.17 548.473 325.439 553.601 288.784C558.431 254.247 583.086 226.095 602.494 195.927C621.928 165.718 632.204 125.592 667.758 111.337C703.46 97.0219 743.275 126.562 782.281 123.841Z" fill="#1572B6" fill-opacity="0.32"/>
<path fill-rule="evenodd" clip-rule="evenodd" d="M1144.21 471.299C1215.59 465.242 1251.2 552.725 1309.89 589.925C1362.3 623.152 1439.21 628.486 1471.21 678.584C1503.21 728.68 1483.96 791.771 1475.43 849.09C1467.77 900.553 1456.53 952.154 1424.09 995.027C1392.85 1036.32 1345.41 1063.97 1295.9 1086.37C1248.41 1107.86 1195.75 1110.06 1144.21 1121.66C1075.59 1137.1 1004.73 1194.82 941.553 1166.11C879.558 1137.94 902.452 1047.44 864.891 994.738C824.559 938.146 723.585 916.006 715.622 849.09C707.854 783.809 774.419 728.612 827.934 684.172C873.763 646.113 945.666 650.194 995.587 616.595C1055.14 576.512 1070.27 477.574 1144.21 471.299Z" fill="#FF7B73" fill-opacity="0.21"/>
<path fill-rule="evenodd" clip-rule="evenodd" d="M217.601 -189.006C276.601 -200.073 347.884 -238.683 394.241 -200.546C443.365 -160.133 397.377 -71.8229 427.887 -16.0062C457.248 37.7082 546.539 46.0377 561.478 105.402C575.889 162.667 536.973 222.549 499.379 268.086C464.255 310.631 407.497 323.998 359.119 350.518C311.899 376.403 271.449 422.938 217.601 422.551C163.79 422.164 126.787 369.524 77.2545 348.49C19.1296 323.807 -67.6552 343.012 -98.9142 288.143C-130.235 233.165 -87.9708 162.748 -61.2328 105.402C-40.7651 61.5045 11.8339 42.5223 35.3508 0.179749C59.4783 -43.2623 41.0062 -104.968 75.4821 -140.756C110.793 -177.41 167.578 -179.623 217.601 -189.006Z" fill="#FFE873" fill-opacity="0.21"/>
<path fill-rule="evenodd" clip-rule="evenodd" d="M416.991 337.05C496.902 339.967 498.234 449.348 549.635 500.801C580.332 531.529 635.317 541.611 657.03 577.335C678.445 612.568 663.724 654.219 666.873 693.687C670.273 736.307 701.357 782.203 676.342 819.399C651.352 856.559 583.653 851.424 543.326 877.398C494.575 908.797 475.333 970.259 416.991 986.441C356.52 1003.21 279.021 999.217 231.1 964.001C182.308 928.146 218.801 851.62 176.947 810.04C120.413 753.877 -18.1318 764.669 -40.9995 693.687C-61.3295 630.582 26.0644 573.773 88.1041 534.269C141.153 500.49 223.337 523.359 277.517 490.869C341.057 452.767 338.98 334.203 416.991 337.05Z" fill="#AB0000" fill-opacity="0.24"/>
<path fill-rule="evenodd" clip-rule="evenodd" d="M1348.6 -130.14C1392.66 -137.265 1433.17 -98.6762 1464.98 -67.3566C1493.52 -39.2514 1494.32 6.86438 1519.43 38.0769C1544.67 69.462 1591.81 79.0541 1611.16 114.381C1631.47 151.462 1625.61 196.199 1629.1 238.332C1633.69 293.686 1662.94 354.717 1635.07 402.765C1608.15 449.193 1541.45 451.09 1492.7 473.538C1444.7 495.638 1393.99 561.719 1348.6 534.676C1287.61 498.344 1332.59 371.159 1268.74 340.125C1205.25 309.263 1117.22 448.658 1067.83 398.209C1021.32 350.695 1162.46 284.923 1150.65 219.489C1139.66 158.617 1030.66 157.307 1013.6 97.8494C999.229 47.7458 1029.51 -18.5445 1075.12 -43.7839C1126.59 -72.2712 1192.93 -14.7245 1249.03 -32.4396C1293.93 -46.6185 1302.11 -122.624 1348.6 -130.14Z" fill="#7C0087" fill-opacity="0.41"/>
</g>
<defs>
<filter id="filter0_f_11_53" x="-93.1" y="-93.1" width="1722.2" height="1050.2" filterUnits="userSpaceOnUse" color-interpolation-filters="sRGB">
<feFlood flood-opacity="0" result="BackgroundImageFix"/>
<feBlend mode="normal" in="SourceGraphic" in2="BackgroundImageFix" result="shape"/>
<feGaussianBlur stdDeviation="46.55" result="effect1_foregroundBlur_11_53"/>
</filter>
<clipPath id="clip0_11_53">
<rect width="1536" height="864" fill="white"/>
</clipPath>
</defs>
</svg>
