<svg width="80" height="80" viewBox="0 0 80 80" fill="none" xmlns="http://www.w3.org/2000/svg">
<g clip-path="url(#clip0_7_11)">
<path d="M40 0C48.2812 0 55 6.71875 55 15V15.5625C55 18.0156 53.0156 20 50.5625 20H29.4375C26.9844 20 25 18.0156 25 15.5625V15C25 6.71875 31.7188 0 40 0ZM6.46875 16.4688C8.42188 14.5156 11.5938 14.5156 13.5469 16.4688L23.5469 26.4688C23.6562 26.5781 23.75 26.6875 23.8438 26.7969C26.0625 25.6562 28.5938 25.0156 31.2656 25.0156H48.75C51.4219 25.0156 53.9375 25.6562 56.1719 26.7969C56.2656 26.6875 56.3594 26.5781 56.4688 26.4688L66.4688 16.4688C68.4219 14.5156 71.5938 14.5156 73.5469 16.4688C75.5 18.4219 75.5 21.5938 73.5469 23.5469L63.5469 33.5469C63.4375 33.6562 63.3281 33.75 63.2188 33.8438C64.1875 35.7188 64.7969 37.7969 64.9531 40.0156H75C77.7656 40.0156 80 42.25 80 45.0156C80 47.7812 77.7656 50.0156 75 50.0156H65C65 53.8594 64.1406 57.4844 62.5938 60.7344C62.9375 60.9375 63.25 61.1875 63.5312 61.4844L73.5312 71.4844C75.4844 73.4375 75.4844 76.6094 73.5312 78.5625C71.5781 80.5156 68.4062 80.5156 66.4531 78.5625L56.5938 68.7031C52.7656 72.1094 47.875 74.3594 42.4844 74.8906V37.5C42.4844 36.125 41.3594 35 39.9844 35C38.6094 35 37.4844 36.125 37.4844 37.5V74.875C32.0938 74.3438 27.2031 72.0938 23.375 68.6875L13.5312 78.5312C11.5781 80.4844 8.40625 80.4844 6.45312 78.5312C4.5 76.5781 4.5 73.4062 6.45312 71.4531L16.4531 61.4531C16.75 61.1562 17.0625 60.9219 17.3906 60.7031C15.8594 57.4688 15 53.8438 15 50H5C2.23438 50 0 47.7656 0 45C0 42.2344 2.23438 40 5 40H15.0469C15.2188 37.7969 15.8281 35.7031 16.7812 33.8281C16.6719 33.7344 16.5625 33.6406 16.4531 33.5312L6.45312 23.5312C4.5 21.5781 4.5 18.4062 6.45312 16.4531L6.46875 16.4688Z" fill="white"/>
</g>
<defs>
<clipPath id="clip0_7_11">
<rect width="80" height="80" fill="white"/>
</clipPath>
</defs>
</svg>
