<svg width="78" height="59" viewBox="0 0 78 59" fill="none" xmlns="http://www.w3.org/2000/svg">
<path d="M50.557 17.7941L50.531 17.7811L50.4662 17.7552C50.4792 17.7811 50.5181 17.7941 50.557 17.7941Z" fill="white"/>
<path d="M50.9458 20.8267L50.9976 20.8008L51.0106 20.7878L51.0235 20.7749C50.9976 20.7878 50.9717 20.8138 50.9458 20.8267Z" fill="white"/>
<path d="M50.6347 17.8589L50.5829 17.807L50.544 17.7941C50.5699 17.82 50.5958 17.8459 50.6347 17.8589Z" fill="white"/>
<path d="M38.4912 47.4595C38.4523 47.4725 38.4134 47.4984 38.3875 47.5373L38.4134 47.5114C38.4523 47.4854 38.4782 47.4725 38.4912 47.4595Z" fill="white"/>
<path d="M45.5544 46.0598C45.5544 46.021 45.5285 46.021 45.5414 46.1765C45.5414 46.1635 45.5414 46.1506 45.5544 46.1376C45.5414 46.1246 45.5414 46.0987 45.5544 46.0598Z" fill="white"/>
<path d="M44.8157 47.4595C44.7768 47.4725 44.7379 47.4984 44.712 47.5373L44.7379 47.5114C44.7768 47.4854 44.8027 47.4725 44.8157 47.4595Z" fill="white"/>
<path d="M33.5275 47.7835C33.5016 47.7576 33.4627 47.7446 33.4238 47.7317C33.4498 47.7446 33.4886 47.7576 33.5016 47.7706L33.5275 47.7835Z" fill="white"/>
<path d="M32.4259 46.7208C32.4259 46.6819 32.413 46.6301 32.387 46.5912C32.4 46.6301 32.413 46.669 32.4259 46.7208Z" fill="white"/>
<path d="M26.7624 20.7619L26.7883 20.7878L26.8013 20.8008C26.8013 20.7749 26.7883 20.7619 26.7624 20.7619Z" fill="white"/>
<path d="M53.4989 19.2715L53.2656 18.0922C53.0582 17.0294 52.5787 16.0186 51.4901 15.6427C51.1402 15.5261 50.7384 15.4613 50.4792 15.215C50.207 14.9558 50.1293 14.567 50.0645 14.2042C49.9478 13.5302 49.8442 12.8563 49.7275 12.1824C49.6238 11.5992 49.5461 10.9512 49.2869 10.4328C48.937 9.72 48.2242 9.30528 47.5114 9.03312C47.1485 8.90352 46.7726 8.78688 46.3968 8.6832C44.6213 8.21664 42.755 8.04816 40.9277 7.94448C38.7374 7.82784 36.5342 7.85376 34.344 8.04816C32.711 8.19072 31.0003 8.37216 29.4581 8.9424C28.8878 9.14976 28.3046 9.396 27.877 9.83664C27.3456 10.368 27.1771 11.2104 27.5659 11.8714C27.8381 12.3509 28.3046 12.6878 28.7971 12.9082C29.4322 13.1933 30.1061 13.4136 30.793 13.5562C32.711 13.9838 34.681 14.1394 36.6379 14.2171C38.8022 14.3078 40.9666 14.2301 43.1309 14.0098C43.6622 13.945 44.1936 13.8802 44.725 13.8024C45.347 13.7117 45.7488 12.8822 45.5674 12.325C45.347 11.6381 44.7509 11.3789 44.0899 11.4826C43.9862 11.4955 43.8955 11.5085 43.7918 11.5214L43.727 11.5344C43.4938 11.5603 43.2734 11.5862 43.0402 11.6122C42.5736 11.664 42.107 11.7029 41.6275 11.7418C40.5778 11.8195 39.515 11.8454 38.4523 11.8454C37.4155 11.8454 36.3787 11.8195 35.3419 11.7418C34.8624 11.7158 34.3958 11.677 33.9293 11.6251C33.709 11.5992 33.5016 11.5733 33.2942 11.5474L33.0869 11.5214H33.048L32.8406 11.4955C32.413 11.4307 31.9853 11.353 31.5576 11.2622C31.5187 11.2493 31.4798 11.2234 31.4539 11.1974C31.428 11.1715 31.415 11.1197 31.415 11.0808C31.415 11.0419 31.428 10.9901 31.4539 10.9642C31.4798 10.9382 31.5187 10.9123 31.5576 10.8994H31.5706C31.9334 10.8216 32.3093 10.7568 32.6851 10.692C32.8147 10.6661 32.9314 10.6531 33.061 10.6402C33.2942 10.6272 33.5275 10.5883 33.7608 10.5494C35.7826 10.3421 37.8173 10.2643 39.852 10.3291C40.837 10.355 41.8219 10.4198 42.8069 10.5106C43.0142 10.5365 43.2346 10.5494 43.4419 10.5754C43.5197 10.5883 43.5974 10.6013 43.6882 10.6013L43.8566 10.6272C44.3362 10.692 44.8027 10.7827 45.2822 10.8864C45.9821 11.0419 46.8763 11.0938 47.1874 11.8454C47.291 12.0917 47.3299 12.3509 47.3818 12.6101L47.4466 12.9341V12.947C47.615 13.7117 47.7706 14.4763 47.939 15.241C47.952 15.2928 47.952 15.3576 47.939 15.4094C47.9261 15.4613 47.9002 15.5261 47.8742 15.565C47.8354 15.6168 47.7965 15.6557 47.7446 15.6816C47.6928 15.7075 47.641 15.7334 47.5891 15.7334L47.4854 15.7464L47.3818 15.7594C47.0707 15.7982 46.7467 15.8371 46.4357 15.876C45.8136 15.9408 45.1915 16.0056 44.5694 16.0574C43.3253 16.1611 42.0941 16.2259 40.8499 16.2648C40.2149 16.2778 39.5798 16.2907 38.9448 16.2907C36.4176 16.2907 33.9034 16.1482 31.4021 15.8501C31.1299 15.8242 30.8578 15.7853 30.5856 15.7464C30.793 15.7723 30.4301 15.7205 30.3653 15.7205C30.1968 15.6946 30.0154 15.6686 29.8469 15.6427C29.2637 15.552 28.6934 15.4483 28.1102 15.3576C27.4104 15.241 26.7494 15.3058 26.1144 15.6427C25.596 15.9278 25.1813 16.3555 24.9091 16.8869C24.637 17.4442 24.5592 18.0662 24.4296 18.6624C24.313 19.2715 24.1186 19.9195 24.1963 20.5416C24.3518 21.8765 25.285 22.9651 26.6328 23.2114C27.9029 23.4446 29.173 23.6261 30.456 23.7816C35.4715 24.3907 40.5518 24.4685 45.5803 24.0019C45.995 23.963 46.3968 23.9242 46.8115 23.8723C46.9411 23.8594 47.0707 23.8723 47.1874 23.9112C47.304 23.9501 47.4206 24.0278 47.5114 24.1186C47.6021 24.2093 47.6669 24.313 47.7187 24.4426C47.7576 24.5592 47.7835 24.6888 47.7706 24.8184L47.641 26.0626C47.3818 28.5638 47.1226 31.0651 46.8763 33.5794C46.6042 36.2102 46.345 38.8411 46.0728 41.472C45.995 42.2107 45.9173 42.9494 45.8395 43.6882C45.7618 44.4139 45.7618 45.1656 45.6192 45.8914C45.3989 47.0189 44.6342 47.7187 43.5197 47.9779C42.4958 48.2112 41.4461 48.3278 40.3963 48.3408C39.2299 48.3408 38.0635 48.3019 36.8971 48.3019C35.653 48.3149 34.1237 48.1982 33.1646 47.2651C32.3222 46.4486 32.2056 45.1786 32.089 44.077C31.9334 42.6254 31.7779 41.161 31.6354 39.7094L30.793 31.6094L30.2486 26.3606C30.2357 26.2699 30.2357 26.1922 30.2227 26.1014C30.1579 25.4794 29.7173 24.8702 29.0174 24.8962C28.4213 24.9221 27.7474 25.4275 27.8122 26.1014L28.2139 29.9894L29.0563 38.0246C29.2896 40.3056 29.5358 42.5866 29.7691 44.8805C29.821 45.3211 29.8598 45.7618 29.9117 46.1894C30.1709 48.587 31.9982 49.8701 34.2662 50.233C35.5882 50.4403 36.936 50.4922 38.2838 50.5051C40.0075 50.531 41.7442 50.5958 43.429 50.2848C45.9302 49.8312 47.8094 48.1594 48.0816 45.5544C48.1594 44.8027 48.2371 44.051 48.3149 43.3123C48.5741 40.837 48.8203 38.3616 49.0795 35.8733L49.909 27.7733L50.2848 24.0667C50.2978 23.8853 50.3755 23.7038 50.5051 23.5742C50.6347 23.4446 50.7902 23.341 50.9717 23.315C51.6845 23.1725 52.3714 22.9392 52.8768 22.3949C53.6285 21.5395 53.784 20.412 53.4989 19.2715ZM26.568 20.075C26.581 20.075 26.555 20.1658 26.555 20.2046C26.5421 20.1398 26.5421 20.075 26.568 20.075ZM26.6328 20.6064C26.6328 20.6064 26.6587 20.6194 26.6717 20.6582C26.6458 20.6323 26.6328 20.6064 26.6328 20.6064ZM26.6976 20.6971C26.7365 20.7749 26.7235 20.749 26.6976 20.6971ZM50.868 20.6453C50.6088 20.8915 50.22 21.0082 49.8442 21.06C45.5544 21.695 41.1869 22.019 36.8453 21.8765C33.7349 21.7728 30.6634 21.4229 27.5789 20.9952C27.2808 20.9563 26.9568 20.8915 26.7494 20.6712C26.3606 20.2565 26.555 19.4141 26.6587 18.8957C26.7494 18.4291 26.9309 17.807 27.4882 17.7422C28.3435 17.6386 29.3544 18.0014 30.1968 18.131C31.2206 18.2866 32.2574 18.4162 33.2813 18.5069C37.6877 18.9086 42.1848 18.8438 46.5653 18.2606C47.3688 18.157 48.1594 18.0274 48.9629 17.8848C49.6757 17.7552 50.4533 17.5219 50.881 18.2477C51.179 18.7531 51.2179 19.4141 51.1661 19.9843C51.1661 20.2435 51.0494 20.4768 50.868 20.6453Z" fill="white"/>
</svg>
