<svg width="80" height="80" viewBox="0 0 80 80" fill="none" xmlns="http://www.w3.org/2000/svg">
<path d="M72.125 19.1875L41.9375 1.8125C41.4375 1.5 40.75 1.375 40 1.375C39.25 1.375 38.5625 1.5625 38.0625 1.8125L8.0625 19.25C7 19.875 6.25 21.4375 6.25 22.625V57.4375C6.25 58.125 6.375 58.9375 6.875 59.625L73.625 20.875C73.25 20.125 72.6875 19.5625 72.125 19.1875Z" fill="#9B4F96"/>
<path d="M6.6875 59.5625C7 60.0625 7.4375 60.5 7.875 60.75L38 78.1875C38.5 78.5 39.1875 78.625 39.9375 78.625C40.6875 78.625 41.375 78.4375 41.875 78.1875L71.875 60.75C72.9375 60.125 73.6875 58.5625 73.6875 57.375V22.5625C73.6875 22 73.625 21.375 73.3125 20.8125L6.6875 59.5625Z" fill="#68217A"/>
<path d="M53.3125 47.5625C50.6875 52.1875 45.6875 55.3125 40 55.3125C31.5625 55.3125 24.6875 48.4375 24.6875 40C24.6875 31.5625 31.5625 24.6875 40 24.6875C45.6875 24.6875 50.6875 27.8125 53.3125 32.5L61.4375 27.8125C57.1875 20.375 49.1875 15.3125 40 15.3125C26.375 15.3125 15.3125 26.375 15.3125 40C15.3125 53.625 26.375 64.6875 40 64.6875C49.125 64.6875 57.125 59.6875 61.375 52.3125L53.3125 47.5625ZM60.625 41.375L61.1875 38.6875H58.5625V35.75H61.75L62.5 31.875H65.5625L64.8125 35.6875H67.1875L67.9375 31.875H70.9375L70.1875 35.6875H71.6875V38.625H69.625L69.0625 41.3125H71.6875V44.25H68.5L67.75 48H64.6875L65.4375 44.25H63.0625L62.3125 48H59.3125L60.0625 44.25H58.5625V41.3125H60.625V41.375ZM63.625 41.375H66L66.5625 38.6875H64.1875L63.625 41.375Z" fill="white"/>
</svg>
