<svg width="100" height="100" viewBox="0 0 100 100" fill="none" xmlns="http://www.w3.org/2000/svg">
<path d="M21.5727 91.1766L15.2469 20.2289H84.7524L78.4211 91.1649L49.957 99.057L21.5727 91.1766Z" fill="#1572B6"/>
<path d="M50.0008 93.025L73 86.6484L78.4109 26.0305H50.0008V93.025Z" fill="#33A9DC"/>
<path d="M50 51.7344H61.5141L62.3102 42.8242H50V34.1227H71.8195L71.6109 36.457L69.4727 60.4352H50V51.7344Z" fill="white"/>
<path d="M50.0524 74.3328L50.0141 74.3437L40.3234 71.7266L39.7031 64.7867H30.9695L32.1891 78.4492L50.0125 83.3969L50.0531 83.3852L50.0524 74.3328Z" fill="#EBEBEB"/>
<path d="M60.775 60.0672L59.7266 71.7203L50.0219 74.3399V83.393L67.8602 78.4492L67.9914 76.9789L69.5055 60.0672H60.775Z" fill="white"/>
<path d="M50.0305 34.1227V42.8234H29.0125L28.8375 40.868L28.4414 36.457L28.2328 34.1227H50.0305ZM50 51.7352V60.4367H40.432L40.2578 58.4812L39.8609 54.0695L39.6524 51.7352H50Z" fill="#EBEBEB"/>
</svg>
