<svg width="45" height="45" viewBox="0 0 45 45" fill="none" xmlns="http://www.w3.org/2000/svg">
<g clip-path="url(#clip0_5_72)">
<path d="M5.625 9.84375C4.85156 9.84375 4.21875 10.4766 4.21875 11.25V13.1924L19.3799 25.6377C21.1992 27.1318 23.8096 27.1318 25.6289 25.6377L40.7812 13.1924V11.25C40.7812 10.4766 40.1484 9.84375 39.375 9.84375H5.625ZM4.21875 18.6504V33.75C4.21875 34.5234 4.85156 35.1562 5.625 35.1562H39.375C40.1484 35.1562 40.7812 34.5234 40.7812 33.75V18.6504L28.3008 28.8984C24.9258 31.667 20.0654 31.667 16.6992 28.8984L4.21875 18.6504ZM0 11.25C0 8.14746 2.52246 5.625 5.625 5.625H39.375C42.4775 5.625 45 8.14746 45 11.25V33.75C45 36.8525 42.4775 39.375 39.375 39.375H5.625C2.52246 39.375 0 36.8525 0 33.75V11.25Z" fill="white"/>
<g clip-path="url(#clip1_5_72)">
<path d="M30 -342.333C-56.4334 -343.578 -140.429 -313.68 -206.637 -258.104C-272.846 -202.527 -316.846 -124.983 -330.598 -39.6414C-344.35 45.7002 -326.934 133.141 -281.535 206.701C-236.135 280.262 -165.783 335.031 -83.3333 361C-66.6667 364.333 -53.3333 346 -53.3333 331V282.667C-153.333 304.333 -185 234.333 -185 234.333C-191.502 213.235 -204.295 194.626 -221.667 181C-255 157.667 -220 159.333 -220 159.333C-208.869 160.221 -198.1 163.697 -188.551 169.484C-179.002 175.271 -170.937 183.21 -165 192.667C-136.667 241 -73.3333 236 -53.3333 227.667C-55.0837 211.095 -52.1988 194.362 -45 179.333C-158.333 159.333 -220 92.6667 -220 2.66666C-221.192 -44.2721 -203.825 -89.7871 -171.667 -124C-180.625 -140.55 -184.894 -159.231 -184.013 -178.029C-183.132 -196.827 -177.134 -215.028 -166.667 -230.667C-146.538 -230.271 -126.7 -225.781 -108.362 -217.472C-90.0235 -209.162 -73.5688 -197.207 -60 -182.333C-31.0592 -192.209 -0.560883 -196.727 30 -195.667C60.4306 -196.61 90.8157 -192.671 120 -184C133.772 -198.495 150.303 -210.091 168.621 -218.105C186.939 -226.119 206.674 -230.39 226.667 -230.667C236.905 -214.981 242.901 -196.908 244.069 -178.213C245.238 -159.518 241.539 -140.839 233.333 -124C264.885 -89.5237 281.643 -44.0393 280 2.66666C280 92.6667 218.333 159.333 105 179.333C112.199 194.362 115.084 211.095 113.333 227.667V331C113.327 335.084 114.155 339.126 115.765 342.879C117.376 346.632 119.736 350.016 122.701 352.825C125.666 355.634 129.173 357.807 133.007 359.213C136.841 360.619 140.922 361.227 145 361C225.486 333.074 293.53 277.633 337.139 204.447C380.747 131.262 397.121 45.032 383.374 -39.0442C369.627 -123.12 326.642 -199.645 261.994 -255.13C197.347 -310.614 115.189 -341.496 30 -342.333Z" fill="black"/>
</g>
</g>
<defs>
<clipPath id="clip0_5_72">
<rect width="45" height="45" fill="white"/>
</clipPath>
<clipPath id="clip1_5_72">
<rect width="800" height="800" fill="white" transform="translate(-370 -374)"/>
</clipPath>
</defs>
</svg>
