<svg width="90" height="90" viewBox="0 0 90 90" fill="none" xmlns="http://www.w3.org/2000/svg">
<g clip-path="url(#clip0_17_2)">
<path d="M28.003 90C36.2813 90 43 83.28 43 75V60H28.003C19.7247 60 13.006 66.72 13.006 75C13.006 83.28 19.7247 90 28.003 90Z" fill="#0ACF83"/>
<path d="M13.006 45C13.006 36.72 19.7247 30 28.003 30H43V60H28.003C19.7247 60 13.006 53.28 13.006 45Z" fill="#A259FF"/>
<path d="M13.006 15.0001C13.006 6.72006 19.7247 6.10352e-05 28.003 6.10352e-05H43V30.0001H28.003C19.7247 30.0001 13.006 23.2801 13.006 15.0001Z" fill="#F24E1E"/>
<path d="M43 6.10352e-05H57.997C66.2753 6.10352e-05 72.994 6.72006 72.994 15.0001C72.994 23.2801 66.2753 30.0001 57.997 30.0001H43V6.10352e-05Z" fill="#FF7262"/>
<path d="M72.994 45C72.994 53.28 66.2753 60 57.997 60C49.7187 60 43 53.28 43 45C43 36.72 49.7187 30 57.997 30C66.2753 30 72.994 36.72 72.994 45Z" fill="#1ABCFE"/>
</g>
<defs>
<clipPath id="clip0_17_2">
<rect width="60" height="90" fill="white" transform="translate(13)"/>
</clipPath>
</defs>
</svg>
