<svg width="80" height="80" viewBox="0 0 80 80" fill="none" xmlns="http://www.w3.org/2000/svg">
<g clip-path="url(#clip0_5_43)">
<path d="M78.4901 36.4506L43.5626 1.51049C43.0843 1.03182 42.5165 0.652111 41.8915 0.393047C41.2665 0.133982 40.5966 0.000640869 39.9201 0.000640869C39.2435 0.000640869 38.5736 0.133982 37.9487 0.393047C37.3237 0.652111 36.7558 1.03182 36.2776 1.51049L29.0276 8.76311L38.2276 17.9664C40.3676 17.2162 42.8176 17.7288 44.5226 19.4345C45.3342 20.2478 45.9008 21.2732 46.1576 22.3933C46.4145 23.5135 46.3512 24.6833 45.9751 25.7693L54.8426 34.64C56.9876 33.8997 59.4626 34.3774 61.1751 36.0955C61.7443 36.6651 62.1959 37.3414 62.5039 38.0856C62.8119 38.8298 62.9704 39.6274 62.9703 40.4329C62.9702 41.2384 62.8115 42.036 62.5032 42.7801C62.195 43.5243 61.7433 44.2004 61.1738 44.7699C60.6044 45.3393 59.9284 45.7911 59.1844 46.0992C58.4405 46.4073 57.6431 46.5659 56.8379 46.5658C56.0327 46.5656 55.2354 46.4069 54.4916 46.0985C53.7477 45.7902 53.0718 45.3383 52.5026 44.7686C50.7026 42.968 50.2576 40.317 51.1676 38.0987L42.8976 29.8257V51.5961C43.4979 51.8933 44.0466 52.2851 44.5226 52.7565C45.0918 53.326 45.5434 54.0021 45.8515 54.7461C46.1596 55.4902 46.3182 56.2877 46.3182 57.0931C46.3182 57.8984 46.1596 58.6959 45.8515 59.44C45.5434 60.1841 45.0918 60.8601 44.5226 61.4296C43.9533 61.9991 43.2774 62.4509 42.5336 62.7591C41.7898 63.0673 40.9926 63.2259 40.1876 63.2259C39.3825 63.2259 38.5853 63.0673 37.8415 62.7591C37.0977 62.4509 36.4218 61.9991 35.8526 61.4296C35.2826 60.8605 34.8304 60.1846 34.5219 59.4404C34.2134 58.6963 34.0546 57.8986 34.0546 57.0931C34.0546 56.2875 34.2134 55.4898 34.5219 54.7457C34.8304 54.0016 35.2826 53.3256 35.8526 52.7565C36.4451 52.1663 37.1026 51.7186 37.8601 51.4185V29.4456C37.1301 29.1455 36.4451 28.7028 35.8526 28.1076C34.9917 27.2475 34.4065 26.1505 34.1714 24.9563C33.9363 23.7622 34.062 22.525 34.5326 21.4027L25.4576 12.3294L1.50756 36.263C1.02869 36.7415 0.648804 37.3097 0.389612 37.9352C0.13042 38.5606 -0.00299072 39.231 -0.00299072 39.9081C-0.00299072 40.5852 0.13042 41.2556 0.389612 41.881C0.648804 42.5065 1.02869 43.0747 1.50756 43.5532L36.4376 78.4908C36.9158 78.9695 37.4837 79.3492 38.1087 79.6082C38.7336 79.8673 39.4035 80.0006 40.0801 80.0006C40.7566 80.0006 41.4265 79.8673 42.0515 79.6082C42.6765 79.3492 43.2443 78.9695 43.7226 78.4908L78.4901 43.7657C78.9689 43.2873 79.3488 42.7191 79.608 42.0936C79.8672 41.4682 80.0006 40.7977 80.0006 40.1207C80.0006 39.4436 79.8672 38.7732 79.608 38.1477C79.3488 37.5223 78.9689 36.9541 78.4901 36.4756" fill="#F03C2E"/>
</g>
<defs>
<clipPath id="clip0_5_43">
<rect width="80" height="80" fill="white"/>
</clipPath>
</defs>
</svg>
