<svg width="45" height="45" viewBox="0 0 45 45" fill="none" xmlns="http://www.w3.org/2000/svg">
<g clip-path="url(#clip0_11_58)">
<path d="M22.5 1.78124C17.6381 1.71125 12.9134 3.39299 9.18915 6.51917C5.46492 9.64535 2.9899 14.0072 2.21637 18.8077C1.44284 23.6081 2.42244 28.5267 4.97616 32.6644C7.52989 36.8022 11.4872 39.883 16.125 41.3437C17.0625 41.5312 17.8125 40.5 17.8125 39.6562V36.9375C12.1875 38.1562 10.4062 34.2187 10.4062 34.2187C10.0405 33.0319 9.32088 31.9852 8.34375 31.2187C6.46875 29.9062 8.4375 30 8.4375 30C9.0636 30.0499 9.66937 30.2454 10.2065 30.571C10.7436 30.8965 11.1973 31.3431 11.5312 31.875C13.125 34.5937 16.6875 34.3125 17.8125 33.8437C17.714 32.9116 17.8763 31.9704 18.2812 31.125C11.9062 30 8.4375 26.25 8.4375 21.1875C8.37043 18.5472 9.34736 15.987 11.1562 14.0625C10.6523 13.1316 10.4122 12.0807 10.4618 11.0233C10.5113 9.96596 10.8487 8.94219 11.4375 8.0625C12.5698 8.08476 13.6856 8.33729 14.7172 8.8047C15.7487 9.27211 16.6742 9.94461 17.4375 10.7812C19.0654 10.2258 20.7809 9.9716 22.5 10.0312C24.2117 9.97819 25.9209 10.1997 27.5625 10.6875C28.3372 9.87215 29.267 9.2199 30.2974 8.76911C31.3278 8.31831 32.4379 8.07807 33.5625 8.0625C34.1384 8.94484 34.4757 9.96143 34.5414 11.013C34.6071 12.0646 34.399 13.1153 33.9375 14.0625C35.7123 16.0018 36.6549 18.5603 36.5625 21.1875C36.5625 26.25 33.0937 30 26.7187 31.125C27.1237 31.9704 27.286 32.9116 27.1875 33.8437V39.6562C27.1871 39.886 27.2337 40.1133 27.3243 40.3244C27.4149 40.5355 27.5477 40.7259 27.7144 40.8839C27.8812 41.0419 28.0785 41.1642 28.2941 41.2432C28.5098 41.3223 28.7394 41.3565 28.9687 41.3437C33.4961 39.7729 37.3235 36.6543 39.7765 32.5377C42.2295 28.421 43.1506 23.5705 42.3773 18.8413C41.604 14.112 39.1861 9.80746 35.5497 6.68646C31.9133 3.56545 27.2919 1.82832 22.5 1.78124Z" fill="white"/>
</g>
<defs>
<clipPath id="clip0_11_58">
<rect width="45" height="45" fill="white"/>
</clipPath>
</defs>
</svg>
