<svg width="45" height="45" viewBox="0 0 45 45" fill="none" xmlns="http://www.w3.org/2000/svg">
<path fill-rule="evenodd" clip-rule="evenodd" d="M13.4497 0C14.3242 0 15.0684 0.191861 15.6859 0.563814C16.3036 0.947278 16.6104 1.43046 16.6104 2.02893V42.9143C16.6104 43.4324 16.2881 43.9082 15.6552 44.3413C15.0183 44.7787 14.2861 44.9974 13.4497 44.9974C12.5751 44.9974 11.8424 44.7787 11.2478 44.3413C10.6494 43.9041 10.3502 43.4325 10.3502 42.9143V2.02511C10.3502 1.43046 10.6418 0.939684 11.2173 0.563814C11.7927 0.191907 12.5367 0 13.4497 0ZM20.3771 23.6249C20.3079 22.8996 20.4692 22.3701 20.8449 22.021L29.226 16.8045C29.786 16.4246 30.5188 16.2405 31.4317 16.2405C32.3481 16.2405 33.1117 16.4246 33.7259 16.8043C34.3394 17.1765 34.6499 17.6598 34.6499 18.2582V42.9145C34.6499 43.4325 34.3318 43.9041 33.6944 44.3415C33.0625 44.7789 32.3065 44.9974 31.4318 44.9974C30.5572 44.9974 29.8286 44.7789 29.2611 44.3415C28.6777 43.9041 28.3906 43.4325 28.3906 42.9143V24.5755L25.0758 26.6278C24.7002 26.9733 24.1326 27.0652 23.3842 26.8964C22.625 26.7237 21.9612 26.3172 21.3669 25.6688C20.7761 25.0246 20.4423 24.3419 20.3771 23.6249Z" fill="white"/>
</svg>
