<svg width="100" height="100" viewBox="0 0 100 100" fill="none" xmlns="http://www.w3.org/2000/svg">
<path d="M21.7609 90.9016L15.4774 20.4242H84.5227L78.2328 90.8906L49.9578 98.7289L21.7609 90.9016Z" fill="#E44D26"/>
<path d="M50 92.7375L72.8469 86.4031L78.2227 26.1875H50V92.7375Z" fill="#F16529"/>
<path d="M50 52.3266H38.5617L37.7726 43.4742H50V34.8305H28.3258L28.532 37.15L30.657 60.9695H50V52.3266ZM50 74.7742L49.9617 74.7844L40.3359 72.1844L39.7203 65.2914H31.043L32.2539 78.8633L49.9601 83.7789L50 83.7672V74.7742Z" fill="#EBEBEB"/>
<path d="M49.9703 52.3266V60.9695H60.6141L59.6109 72.1797L49.9703 74.782V83.7742L67.6906 78.8633L67.8203 77.4023L69.8516 54.6469L70.0625 52.3266H67.7328H49.9703ZM49.9703 34.8305V43.4742H70.8492L71.0219 41.5313L71.4164 37.15L71.6234 34.8305H49.9703Z" fill="white"/>
</svg>
