<svg width="80" height="80" viewBox="0 0 80 80" fill="none" xmlns="http://www.w3.org/2000/svg">
<g clip-path="url(#clip0_5_58)">
<path d="M79.025 31.775L70.4838 0L38.5875 8.5175L33.8688 16.8138L24.31 16.745L0.975006 40.0063L24.3125 63.2613L33.885 63.19L38.61 71.4863L70.485 79.9987L79.025 48.2262L74.175 40L79.025 31.775ZM59.025 11.9L45.045 36.075H17.055L34.6725 18.15L59.025 11.9ZM45.045 43.9313L59.04 68.1038L34.6563 61.8388L17.0375 43.9375H45.0275L45.045 43.9313ZM51.88 40.0063L65.875 15.8313L72.6413 40.0063L65.875 64.175L51.88 40.0063Z" fill="white"/>
</g>
<defs>
<clipPath id="clip0_5_58">
<rect width="80" height="80" fill="white"/>
</clipPath>
</defs>
</svg>
